<svg width="40" height="40" viewBox="0 0 40 40" fill="none" xmlns="http://www.w3.org/2000/svg">
<g id="32/Drizzle">
<path id="outline" fill-rule="evenodd" clip-rule="evenodd" d="M37.5 21.25C37.5 25.2976 34.8495 28.7034 31.25 29.7028V27.0584C33.4143 26.1522 35 23.9398 35 21.25C35 17.712 32.2566 15 29.0616 15C28.159 15 27.2924 15.2165 26.5135 15.6068C26.4738 14.8796 26.3671 14.1709 26.1998 13.4874L26.1961 13.4889C25.0114 8.56255 20.7298 5 15.7604 5C9.90224 5 5 9.95058 5 16.25C5 20.2864 7.01274 23.769 10 25.7503V28.6384C5.56173 26.4154 2.5 21.7034 2.5 16.25C2.5 8.65608 8.43686 2.5 15.7604 2.5C21.8362 2.5 26.9576 6.73721 28.5263 12.5173C28.7033 12.5058 28.8818 12.5 29.0616 12.5C33.722 12.5 37.5 16.4175 37.5 21.25ZM12.5013 28.0114C12.5011 27.4135 12.6916 26.7635 12.9511 26.1556C13.5055 24.857 14.375 23.75 14.375 23.75C14.375 23.75 15.2053 24.8969 15.7613 26.1565C16.0409 26.7901 16.2511 27.4523 16.2513 28.0114C16.2516 29.1097 15.4125 30 14.3769 30C13.3414 30 12.5016 29.1097 12.5013 28.0114ZM19.2011 26.1556C18.9416 26.7635 18.7511 27.4135 18.7513 28.0114C18.7516 29.1097 19.5914 30 20.6269 30C21.6625 30 22.5016 29.1097 22.5013 28.0114C22.5011 27.4523 22.2909 26.7901 22.0113 26.1565C21.4553 24.8969 20.625 23.75 20.625 23.75C20.625 23.75 19.7555 24.857 19.2011 26.1556ZM16.0944 34.2614C16.0943 33.6635 16.2847 33.0135 16.5443 32.4056C17.0987 31.107 17.9681 30 17.9681 30C17.9681 30 18.7985 31.1469 19.3544 32.4065C19.6341 33.0401 19.8443 33.7023 19.8444 34.2614C19.8448 35.3597 19.0056 36.25 17.9701 36.25C16.9345 36.25 16.0948 35.3597 16.0944 34.2614ZM25.4511 26.1556C25.1916 26.7635 25.0011 27.4135 25.0013 28.0114C25.0016 29.1097 25.8414 30 26.8769 30C27.9125 30 28.7516 29.1097 28.7513 28.0114C28.7511 27.4523 28.5409 26.7901 28.2613 26.1565C27.7053 24.8969 26.875 23.75 26.875 23.75C26.875 23.75 26.0055 24.857 25.4511 26.1556ZM22.3631 34.2614C22.3629 33.6635 22.5534 33.0135 22.8129 32.4056C23.3673 31.107 24.2368 30 24.2368 30C24.2368 30 25.0671 31.1469 25.623 32.4065C25.9027 33.0401 26.1129 33.7023 26.1131 34.2614C26.1134 35.3597 25.2742 36.25 24.2387 36.25C23.2031 36.25 22.3634 35.3597 22.3631 34.2614Z" fill="url(#paint0_linear_2700_3807)"/>
</g>
<defs>
<linearGradient id="paint0_linear_2700_3807" x1="20" y1="2.5" x2="20" y2="36.25" gradientUnits="userSpaceOnUse">
<stop stop-color="#95B6F6"/>
<stop offset="1" stop-color="#5193DE"/>
</linearGradient>
</defs>
</svg>
