<svg width="20" height="20" viewBox="0 0 20 20" fill="none" xmlns="http://www.w3.org/2000/svg">
<g id="heart-fill">
<path id="Icon" fill-rule="evenodd" clip-rule="evenodd" d="M9.99418 3.37784C8.11034 1.62445 5.25678 1.23635 3.05634 3.11645C0.717711 5.11463 0.38028 8.47442 2.22676 10.8505C2.94246 11.7714 4.34983 13.1665 5.71537 14.4554C7.09288 15.7556 8.46765 16.9846 9.14581 17.5852L9.15726 17.5953C9.22273 17.6534 9.2962 17.7185 9.3654 17.7706C9.44601 17.8313 9.55445 17.9011 9.6966 17.9435C9.89017 18.0012 10.0986 18.0012 10.2922 17.9435C10.4343 17.9011 10.5428 17.8313 10.6234 17.7706C10.6926 17.7185 10.766 17.6534 10.8315 17.5954L10.843 17.5852C11.5211 16.9846 12.8959 15.7556 14.2734 14.4554C15.6389 13.1665 17.0463 11.7714 17.762 10.8505C19.603 8.48152 19.3153 5.09687 16.9259 3.11097C14.6981 1.25935 11.8763 1.6237 9.99418 3.37784Z" fill="#1D2433" fill-opacity="0.8"/>
</g>
</svg>
