<svg width="40" height="40" viewBox="0 0 40 40" fill="none" xmlns="http://www.w3.org/2000/svg">
<rect x="0.5" y="0.5" width="39" height="39" rx="19.5" fill="white"/>
<path fill-rule="evenodd" clip-rule="evenodd" d="M19.9942 13.3778C18.1103 11.6245 15.2568 11.2363 13.0563 13.1164C10.7177 15.1146 10.3803 18.4744 12.2268 20.8505C12.9425 21.7714 14.3498 23.1665 15.7154 24.4554C17.0929 25.7556 18.4677 26.9846 19.1458 27.5852L19.1573 27.5953C19.2227 27.6534 19.2962 27.7185 19.3654 27.7706C19.446 27.8313 19.5544 27.9011 19.6966 27.9435C19.8902 28.0012 20.0986 28.0012 20.2922 27.9435C20.4343 27.9011 20.5428 27.8313 20.6234 27.7706C20.6926 27.7185 20.766 27.6534 20.8315 27.5954L20.843 27.5852C21.5211 26.9846 22.8959 25.7556 24.2734 24.4554C25.6389 23.1665 27.0463 21.7714 27.762 20.8505C29.603 18.4815 29.3153 15.0969 26.9259 13.111C24.6981 11.2594 21.8763 11.6237 19.9942 13.3778Z" fill="#1D2433" fill-opacity="0.8"/>
<rect x="0.5" y="0.5" width="39" height="39" rx="19.5" stroke="#CBD2E1"/>
</svg>
