<svg width="141" height="41" viewBox="0 0 141 41" fill="none" xmlns="http://www.w3.org/2000/svg">
<path d="M16.3295 13.8229H19.0852L21.7386 18.8342H21.8523L24.5057 13.8229H27.2614L23.017 21.3456V25.4592H20.5739V21.3456L16.3295 13.8229ZM38.3381 16.732V18.516H28.6108V16.732H38.3381ZM32.3665 16.732V25.4592H30.0142V16.732H32.3665ZM34.5881 16.732H36.9233V22.7263C36.9271 22.9573 36.9631 23.1373 37.0312 23.266C37.0994 23.391 37.2017 23.4782 37.3381 23.5274C37.4744 23.5767 37.6449 23.6013 37.8494 23.6013C37.982 23.6013 38.107 23.5956 38.2244 23.5842C38.3419 23.5729 38.4441 23.5634 38.5312 23.5558V25.3342C38.3305 25.3986 38.1089 25.4517 37.8665 25.4933C37.6278 25.5388 37.3665 25.5615 37.0824 25.5615C36.321 25.5615 35.715 25.3645 35.2642 24.9706C34.8172 24.5767 34.5919 23.9251 34.5881 23.016V16.732ZM42.9176 20.4138V25.4592H40.4972V16.732H42.804V18.2717H42.9062C43.1032 17.7604 43.429 17.357 43.8835 17.0615C44.3381 16.766 44.8873 16.6183 45.5312 16.6183C46.1411 16.6183 46.6714 16.7509 47.1222 17.016C47.5729 17.2812 47.9214 17.6581 48.1676 18.1467C48.4176 18.6354 48.5426 19.2206 48.5426 19.9024V28.732H46.1222V20.3342C46.1222 19.8001 45.9858 19.3835 45.7131 19.0842C45.4403 18.7812 45.0597 18.6297 44.571 18.6297C44.2491 18.6297 43.9631 18.6998 43.7131 18.8399C43.4631 18.9801 43.268 19.1846 43.1278 19.4535C42.9877 19.7187 42.9176 20.0388 42.9176 20.4138ZM50.4276 28.7092V20.8456C50.4276 19.9327 50.5885 19.1619 50.9105 18.5331C51.2363 17.9043 51.6965 17.4289 52.2912 17.107C52.8859 16.7812 53.5848 16.6183 54.3878 16.6183C55.1037 16.6183 55.7098 16.7376 56.206 16.9763C56.706 17.2149 57.1094 17.5445 57.4162 17.9649C57.7268 18.3854 57.9522 18.8721 58.0923 19.4251C58.2363 19.9744 58.3082 20.5615 58.3082 21.1865V21.3456C58.3082 22.2017 58.17 22.9498 57.8935 23.5899C57.6207 24.2301 57.2268 24.7282 56.7116 25.0842C56.1965 25.4403 55.5791 25.6183 54.8594 25.6183C54.1776 25.6183 53.6283 25.4554 53.2116 25.1297C52.795 24.8001 52.4692 24.3456 52.2344 23.766C52.0033 23.1827 51.8196 22.5066 51.6832 21.7376L52.7628 21.3342C52.7628 21.5994 52.7855 21.8702 52.831 22.1467C52.8764 22.4232 52.956 22.6789 53.0696 22.9138C53.1832 23.1448 53.3442 23.3323 53.5526 23.4763C53.7609 23.6202 54.0279 23.6922 54.3537 23.6922C54.7704 23.6922 55.0942 23.5767 55.3253 23.3456C55.5601 23.1145 55.723 22.8191 55.8139 22.4592C55.9086 22.0994 55.9541 21.7282 55.9503 21.3456V21.1865C55.9503 20.7244 55.8991 20.2982 55.7969 19.9081C55.6946 19.5179 55.5241 19.2054 55.2855 18.9706C55.0507 18.7357 54.7287 18.6183 54.3196 18.6183C53.9408 18.6183 53.6359 18.7301 53.4048 18.9535C53.1776 19.177 53.0128 19.4744 52.9105 19.8456C52.8082 20.2168 52.759 20.624 52.7628 21.0672L52.7798 28.7092H50.4276ZM63.0043 20.8854H64.7599V21.8115H63.5213C63.2372 21.8115 62.9702 21.8494 62.7202 21.9251C62.4702 21.9971 62.2675 22.1107 62.1122 22.266C61.9569 22.4176 61.8774 22.6126 61.8736 22.8513C61.8812 23.1164 62.0251 23.3494 62.3054 23.5501C62.5857 23.7471 62.9872 23.8456 63.5099 23.8456C64.0516 23.8456 64.455 23.7698 64.7202 23.6183C64.9853 23.463 65.1387 23.2376 65.1804 22.9422H67.4872C67.4721 23.3816 67.3565 23.7679 67.1406 24.1013C66.9285 24.4346 66.6444 24.7149 66.2884 24.9422C65.9323 25.1657 65.527 25.3342 65.0724 25.4479C64.6179 25.5615 64.1387 25.6183 63.6349 25.6183C62.8736 25.6183 62.1842 25.516 61.5668 25.3115C60.9531 25.1032 60.4664 24.8096 60.1065 24.4308C59.7505 24.052 59.5705 23.6032 59.5668 23.0842C59.5705 22.7736 59.6387 22.4857 59.7713 22.2206C59.9039 21.9554 60.1084 21.7225 60.3849 21.5217C60.6615 21.321 61.0156 21.1657 61.4474 21.0558C61.883 20.9422 62.402 20.8854 63.0043 20.8854ZM64.7599 21.2206H63.0043C62.4437 21.2206 61.9569 21.1638 61.544 21.0501C61.1312 20.9327 60.7884 20.7755 60.5156 20.5785C60.2467 20.3816 60.0459 20.1581 59.9134 19.9081C59.7808 19.6543 59.7145 19.3948 59.7145 19.1297C59.7145 18.5918 59.883 18.1373 60.2202 17.766C60.5573 17.391 61.0194 17.107 61.6065 16.9138C62.1937 16.7168 62.866 16.6183 63.6236 16.6183C64.3092 16.6183 64.9285 16.7225 65.4815 16.9308C66.0384 17.1354 66.4834 17.4327 66.8168 17.8229C67.1501 18.2092 67.33 18.6751 67.3565 19.2206H65.0213C64.9872 18.9365 64.8319 18.7263 64.5554 18.5899C64.2827 18.4498 63.9323 18.3797 63.5043 18.3797C63.0232 18.3797 62.6577 18.4744 62.4077 18.6638C62.1615 18.8532 62.0365 19.0729 62.0327 19.3229C62.0365 19.5842 62.169 19.7945 62.4304 19.9535C62.6918 20.1088 63.0554 20.1865 63.5213 20.1865H64.7599V21.2206ZM69.0781 21.3229V21.141C69.0819 20.357 69.2429 19.6524 69.5611 19.0274C69.8793 18.4024 70.3433 17.91 70.9531 17.5501C71.563 17.1865 72.3092 17.0047 73.1918 17.0047C73.3168 17.0729 73.4342 17.1941 73.544 17.3683C73.6577 17.5388 73.8054 17.7149 73.9872 17.8967C74.169 18.0748 74.4228 18.2149 74.7486 18.3172C75.1615 18.4535 75.5535 18.677 75.9247 18.9876C76.2997 19.2982 76.6046 19.6695 76.8395 20.1013C77.0781 20.5293 77.1955 20.9895 77.1918 21.482V21.641C77.1955 22.3873 77.0402 23.0615 76.7259 23.6638C76.4152 24.2623 75.9645 24.7376 75.3736 25.0899C74.7827 25.4422 74.063 25.6183 73.2145 25.6183C72.3319 25.6183 71.5819 25.4308 70.9645 25.0558C70.3509 24.677 69.883 24.1638 69.5611 23.516C69.2429 22.8683 69.0819 22.1373 69.0781 21.3229ZM71.4759 21.141V21.3229C71.4796 21.7623 71.5346 22.1638 71.6406 22.5274C71.7505 22.891 71.9304 23.1808 72.1804 23.3967C72.4342 23.6088 72.7789 23.7149 73.2145 23.7149C73.6084 23.7149 73.919 23.6088 74.1463 23.3967C74.3774 23.1808 74.5421 22.891 74.6406 22.5274C74.7429 22.1638 74.794 21.7623 74.794 21.3229V21.141C74.794 20.7395 74.7429 20.3702 74.6406 20.0331C74.5421 19.6922 74.3755 19.4195 74.1406 19.2149C73.9096 19.0104 73.5933 18.9081 73.1918 18.9081C72.7751 18.9081 72.4418 19.0104 72.1918 19.2149C71.9418 19.4195 71.7599 19.6922 71.6463 20.0331C71.5365 20.3702 71.4796 20.7395 71.4759 21.141ZM77.8111 17.0047V18.9081H73.1918V17.0047H77.8111ZM79.9375 16.732H82.2898L82.2614 22.7263C82.2652 23.0748 82.3447 23.3077 82.5 23.4251C82.6591 23.5426 82.8864 23.6013 83.1818 23.6013C83.3333 23.6013 83.464 23.5956 83.5739 23.5842C83.6837 23.5729 83.7822 23.5634 83.8693 23.5558V25.3342C83.6686 25.4024 83.4451 25.4573 83.1989 25.499C82.9564 25.5407 82.7008 25.5615 82.4318 25.5615C81.6705 25.5615 81.0663 25.3645 80.6193 24.9706C80.1723 24.5767 79.9451 23.9251 79.9375 23.016V16.732ZM80.375 15.5899L80.983 12.891H83.1477L81.8011 15.5899H80.375ZM88.0043 20.8854H89.7599V21.8115H88.5213C88.2372 21.8115 87.9702 21.8494 87.7202 21.9251C87.4702 21.9971 87.2675 22.1107 87.1122 22.266C86.9569 22.4176 86.8774 22.6126 86.8736 22.8513C86.8812 23.1164 87.0251 23.3494 87.3054 23.5501C87.5857 23.7471 87.9872 23.8456 88.5099 23.8456C89.0516 23.8456 89.455 23.7698 89.7202 23.6183C89.9853 23.463 90.1387 23.2376 90.1804 22.9422H92.4872C92.4721 23.3816 92.3565 23.7679 92.1406 24.1013C91.9285 24.4346 91.6444 24.7149 91.2884 24.9422C90.9323 25.1657 90.527 25.3342 90.0724 25.4479C89.6179 25.5615 89.1387 25.6183 88.6349 25.6183C87.8736 25.6183 87.1842 25.516 86.5668 25.3115C85.9531 25.1032 85.4664 24.8096 85.1065 24.4308C84.7505 24.052 84.5705 23.6032 84.5668 23.0842C84.5705 22.7736 84.6387 22.4857 84.7713 22.2206C84.9039 21.9554 85.1084 21.7225 85.3849 21.5217C85.6615 21.321 86.0156 21.1657 86.4474 21.0558C86.883 20.9422 87.402 20.8854 88.0043 20.8854ZM89.7599 21.2206H88.0043C87.4437 21.2206 86.9569 21.1638 86.544 21.0501C86.1312 20.9327 85.7884 20.7755 85.5156 20.5785C85.2467 20.3816 85.0459 20.1581 84.9134 19.9081C84.7808 19.6543 84.7145 19.3948 84.7145 19.1297C84.7145 18.5918 84.883 18.1373 85.2202 17.766C85.5573 17.391 86.0194 17.107 86.6065 16.9138C87.1937 16.7168 87.866 16.6183 88.6236 16.6183C89.3092 16.6183 89.9285 16.7225 90.4815 16.9308C91.0384 17.1354 91.4834 17.4327 91.8168 17.8229C92.1501 18.2092 92.33 18.6751 92.3565 19.2206H90.0213C89.9872 18.9365 89.8319 18.7263 89.5554 18.5899C89.2827 18.4498 88.9323 18.3797 88.5043 18.3797C88.0232 18.3797 87.6577 18.4744 87.4077 18.6638C87.1615 18.8532 87.0365 19.0729 87.0327 19.3229C87.0365 19.5842 87.169 19.7945 87.4304 19.9535C87.6918 20.1088 88.0554 20.1865 88.5213 20.1865H89.7599V21.2206ZM97.919 16.6183C98.6577 16.6183 99.2921 16.7604 99.8224 17.0445C100.357 17.3285 100.768 17.7376 101.055 18.2717C101.347 18.802 101.493 19.4403 101.493 20.1865H99.2486C99.2486 19.6297 99.133 19.213 98.902 18.9365C98.6747 18.66 98.3433 18.5217 97.9077 18.5217C97.544 18.5217 97.2353 18.624 96.9815 18.8285C96.7277 19.0293 96.5365 19.3248 96.4077 19.7149C96.2789 20.1013 96.2145 20.5729 96.2145 21.1297V21.3342C96.2145 21.7585 96.2808 22.1145 96.4134 22.4024C96.5459 22.6903 96.7618 22.9308 97.0611 23.124C97.3603 23.3134 97.758 23.4763 98.2543 23.6126C98.9209 23.7945 99.4304 23.9838 99.7827 24.1808C100.135 24.374 100.375 24.5823 100.504 24.8058C100.637 25.0293 100.703 25.2774 100.703 25.5501C100.703 26.1032 100.521 26.6183 100.158 27.0956C99.7978 27.5729 99.3584 28.0047 98.8395 28.391L97.6009 27.482C97.8471 27.2282 98.0327 26.9952 98.1577 26.7831C98.2865 26.571 98.3509 26.3683 98.3509 26.1751C98.3509 25.9857 98.2884 25.8304 98.1634 25.7092C98.0421 25.5918 97.8262 25.4952 97.5156 25.4195C96.6634 25.1922 95.9683 24.9024 95.4304 24.5501C94.8963 24.1941 94.5024 23.7528 94.2486 23.2263C93.9948 22.696 93.8679 22.0653 93.8679 21.3342V21.1297C93.8679 20.2017 94.0289 19.4005 94.3509 18.7263C94.6766 18.052 95.1425 17.5331 95.7486 17.1695C96.3546 16.802 97.0781 16.6183 97.919 16.6183Z" fill="#1D2433"/>
<path fill-rule="evenodd" clip-rule="evenodd" d="M116.014 19.1397C116.282 18.8712 116.718 18.8712 116.986 19.1397L122 24.1536L127.014 19.1397C127.282 18.8712 127.718 18.8712 127.986 19.1397C128.255 19.4082 128.255 19.8435 127.986 20.112L122.486 25.612C122.218 25.8805 121.782 25.8805 121.514 25.612L116.014 20.112C115.745 19.8435 115.745 19.4082 116.014 19.1397Z" fill="#1D2433"/>
</svg>
