<svg width="36" height="36" viewBox="0 0 36 36" fill="none" xmlns="http://www.w3.org/2000/svg">
<g id="outline">
<path id="Union" fill-rule="evenodd" clip-rule="evenodd" d="M20.2952 0.5V3.54391H22.2952V0.5H20.2952ZM35.5001 13.7049H32.4562V15.7049H35.5001V13.7049ZM30.4609 8.25839L33.097 6.73643L34.097 8.46848L31.4609 9.99044L30.4609 8.25839ZM27.5317 1.90306L26.0097 4.53917L27.7418 5.53917L29.2637 2.90306L27.5317 1.90306ZM14.8486 5.53917L13.3267 2.90306L15.0587 1.90306L16.5807 4.53917L14.8486 5.53917ZM28.692 14.7047C28.692 16.2103 28.2465 17.6119 27.4803 18.7848C28.1775 18.8895 28.8442 19.0878 29.467 19.3664C30.2468 17.9902 30.692 16.3995 30.692 14.7047C30.692 9.47464 26.4521 5.2348 21.222 5.2348C17.4664 5.2348 14.2214 7.42097 12.6902 10.5901L12.7012 10.5901C13.4386 10.5901 14.1601 10.6583 14.8596 10.7886C16.175 8.65614 18.5325 7.2348 21.222 7.2348C25.3475 7.2348 28.692 10.5792 28.692 14.7047Z" fill="url(#paint0_linear_2700_3739)"/>
<path id="Union_2" fill-rule="evenodd" clip-rule="evenodd" d="M15.9278 33.25C16.2436 33.1805 16.5546 33.0969 16.8604 33H24.257C24.489 33.0967 24.727 33.1803 24.9701 33.25H27.0517V33.493C30.5804 33.3286 33.5 30.2953 33.5 26.4375C33.5 22.4703 30.4123 19.375 26.75 19.375C25.8116 19.375 24.9109 19.5782 24.0902 19.9473C23.9738 19.2724 23.7983 18.6188 23.5694 17.9923C23.7244 17.9297 23.8815 17.8714 24.0406 17.8178C22.4462 13.4047 18.3471 10.3125 13.625 10.3125C7.5464 10.3125 2.5 15.4365 2.5 21.9062C2.5 28.376 7.5464 33.5 13.625 33.5C13.7073 33.5 13.7894 33.4991 13.8714 33.4972V33.25H15.9278ZM16.1435 35.25C15.3284 35.4141 14.4864 35.5 13.625 35.5C6.37626 35.5 0.5 29.4139 0.5 21.9062C0.5 14.3986 6.37626 8.3125 13.625 8.3125C19.3511 8.3125 24.2208 12.1103 26.0139 17.4066C26.2566 17.3857 26.5021 17.375 26.75 17.375C31.5825 17.375 35.5 21.4324 35.5 26.4375C35.5 31.4426 31.5825 35.5 26.75 35.5C26.0441 35.5 25.3578 35.4134 24.7003 35.25H16.1435ZM20.9794 33.25H20.8599C20.8827 33.2344 20.9054 33.2187 20.9281 33.203C20.9451 33.2187 20.9622 33.2344 20.9794 33.25Z" fill="url(#paint1_linear_2700_3739)"/>
</g>
<defs>
<linearGradient id="paint0_linear_2700_3739" x1="24.0952" y1="0.5" x2="24.0952" y2="19.3664" gradientUnits="userSpaceOnUse">
<stop stop-color="#EFC977"/>
<stop offset="1" stop-color="#E07256"/>
</linearGradient>
<linearGradient id="paint1_linear_2700_3739" x1="18" y1="8.3125" x2="18" y2="35.5" gradientUnits="userSpaceOnUse">
<stop stop-color="#B2D4F7"/>
<stop offset="1" stop-color="#D9E2F3"/>
</linearGradient>
</defs>
</svg>
