<svg width="156" height="46" viewBox="0 0 156 46" fill="none" xmlns="http://www.w3.org/2000/svg">
<g id="Special Button">
<rect x="0.5" y="0.5" width="155" height="45" rx="3.5" fill="#0A0D14"/>
<path id="get it on" fill-rule="evenodd" clip-rule="evenodd" d="M78.9588 15.0174C80.9511 15.0174 82.5661 13.4056 82.5661 11.4174C82.5661 9.42916 80.9511 7.81738 78.9588 7.81738C76.9666 7.81738 75.3516 9.42916 75.3516 11.4174C75.3516 13.4056 76.9666 15.0174 78.9588 15.0174ZM78.9591 13.9174C80.3426 13.9174 81.4642 12.7981 81.4642 11.4174C81.4642 10.0366 80.3426 8.91736 78.9591 8.91736C77.5756 8.91736 76.4541 10.0366 76.4541 11.4174C76.4541 12.7981 77.5756 13.9174 78.9591 13.9174ZM57.4143 8.11743H53.4062V8.21743V8.91743V11.0174V11.8174V14.0174V14.8174H54.5085L57.4143 14.8174V14.0174H54.5085V11.8174H57.1137V11.0174H54.5085V8.91743H57.4143V8.11743ZM58.5176 8.11743H60.2207H61.3229H63.0267V8.91743H61.3229V14.8174H60.2207V8.91743H58.5176V8.11743ZM70.04 8.11743H68.3369V8.91743H70.04V14.8174H71.1423V8.91743H72.846V8.11743H71.1423H70.04ZM67.3346 8.11743H66.2324V14.8174H67.3346V8.11743ZM83.4668 8.11743H83.6672H84.569H84.7694L87.7755 13.0199V8.11743H88.8777V14.8174H87.7755L84.569 9.58816V14.8174H83.4668V8.11743ZM52.5894 11.4473C52.5894 13.3968 51.0452 14.9772 49.1404 14.9772C47.2356 14.9772 45.6914 13.3968 45.6914 11.4473C45.6914 9.49785 47.2356 7.91748 49.1404 7.91748C50.1084 7.91748 50.9832 8.32557 51.6096 8.9828L50.9449 9.64543C50.4956 9.18515 49.8753 8.90051 49.1901 8.90051C47.8187 8.90051 46.707 10.0408 46.707 11.4473C46.707 12.8539 47.8187 13.9941 49.1901 13.9941C50.3458 13.9941 51.3171 13.1843 51.594 12.0877H49.2773V11.1345H51.6546L51.6546 11.1345H52.576C52.5849 11.2376 52.5894 11.3419 52.5894 11.4473Z" fill="white"/>
<path id="googleplay" fill-rule="evenodd" clip-rule="evenodd" d="M52.3893 34.3335C56.3646 34.3335 59.5872 31.0392 59.5872 26.9755C59.5872 26.7557 59.5778 26.5382 59.5594 26.3233H58.9719L58.9719 26.3232H52.6738V28.3102H57.5105C56.9326 30.596 54.9055 32.2841 52.4936 32.2841C49.6316 32.2841 47.3116 29.9073 47.3116 26.9753C47.3116 24.0433 49.6316 21.6665 52.4936 21.6665C53.9232 21.6665 55.2176 22.2595 56.1551 23.2186L57.5419 21.8377C56.2347 20.4679 54.4092 19.6174 52.3893 19.6174C48.414 19.6174 45.1914 22.9117 45.1914 26.9755C45.1914 31.0392 48.414 34.3335 52.3893 34.3335ZM91.4844 20.1174H93.6045V34.088H91.4844V20.1174ZM120.343 20.1174H118.339V34.1174H120.343V20.1174ZM121.96 26.7392C121.96 26.7392 122.894 24.8174 125.697 24.8174C129.166 24.8174 129.77 27.1941 129.775 28.0129H129.776V34.1129H127.771V33.116C127.22 33.5707 126.337 33.9986 124.943 34.0855C121.75 34.2846 121.748 31.3767 121.748 31.1806C121.748 31.1728 121.748 31.1616 121.747 31.1473C121.74 30.7998 121.691 28.5981 124.131 28.2361C125.93 27.9691 127.19 28.4141 127.771 28.6965V28.2867C127.629 27.7423 127.187 26.7392 125.857 26.7392C124.032 26.7392 123.629 27.7237 123.629 27.7237L121.96 26.7392ZM127.628 30.1177C127.628 30.1177 123.768 29.0792 123.633 31.2437C123.499 33.4083 127.337 32.3689 127.68 30.8345C127.68 30.3465 127.628 30.1177 127.628 30.1177ZM134.537 31.2108L131.966 25.1174H129.962L133.535 33.5859L131.665 38.0175H133.669L139.091 25.1659H137.087L134.537 31.2108ZM103.23 28.3899C103.23 28.3899 102.352 24.8174 98.9918 24.8174C95.632 24.8174 94.4902 27.8369 94.4902 29.6202C94.4902 31.4711 95.9287 34.321 99.1945 34.321C101.852 34.321 103.15 32.2266 103.15 32.2266L101.542 31.1397C101.542 31.1397 100.699 32.4673 99.2072 32.4597C97.3016 32.45 96.8922 31.0041 96.8922 31.0041L103.23 28.3899ZM100.818 27.6494C100.818 27.6494 100.021 26.4386 98.798 26.6619C96.2111 27.1342 96.5366 29.3935 96.5366 29.3935L100.818 27.6494ZM88.0912 25.121V25.9929C88.0912 25.9929 87.2392 24.7691 85.4667 24.8189C83.2537 24.881 80.9629 26.5879 80.9629 29.5722C80.9629 32.5565 83.3957 34.307 85.443 34.307C87.3313 34.307 88.0915 33.1195 88.0915 33.1195V34.0762C88.0915 34.759 87.835 36.7539 85.6379 36.7539C83.7085 36.7539 83.1595 35.0301 83.1595 35.0301L81.3596 35.7856C81.3596 35.7856 82.3812 38.5826 85.5443 38.5826C88.7075 38.5826 90.0511 36.2051 90.0511 33.9529V25.1379L88.0912 25.121ZM88.1982 29.5974C88.1982 31.2091 87.0396 32.5157 85.6103 32.5157C84.1811 32.5157 83.0225 31.2091 83.0225 29.5974C83.0225 27.9856 84.1811 26.6791 85.6103 26.6791C87.0396 26.6791 88.1982 27.9856 88.1982 29.5974ZM75.3133 34.3174C77.9479 34.3174 80.0836 32.1907 80.0836 29.5674C80.0836 26.944 77.9479 24.8174 75.3133 24.8174C72.6787 24.8174 70.543 26.944 70.543 29.5674C70.543 32.1907 72.6787 34.3174 75.3133 34.3174ZM75.2821 32.4546C76.763 32.4546 77.9635 31.162 77.9635 29.5674C77.9635 27.9728 76.763 26.6801 75.2821 26.6801C73.8012 26.6801 72.6008 27.9728 72.6008 29.5674C72.6008 31.162 73.8012 32.4546 75.2821 32.4546ZM69.7623 29.5674C69.7623 32.1907 67.6266 34.3174 64.992 34.3174C62.3574 34.3174 60.2217 32.1907 60.2217 29.5674C60.2217 26.944 62.3574 24.8174 64.992 24.8174C67.6266 24.8174 69.7623 26.944 69.7623 29.5674ZM67.6422 29.5674C67.6422 31.162 66.4417 32.4546 64.9608 32.4546C63.48 32.4546 62.2795 31.162 62.2795 29.5674C62.2795 27.9728 63.48 26.6801 64.9608 26.6801C66.4417 26.6801 67.6422 27.9728 67.6422 29.5674ZM107.717 20.1174H108.218H109.721H113.898C113.898 20.1174 117.169 20.6727 117.169 24.4204C117.169 28.1681 113.898 28.7234 113.898 28.7234H109.721V34.1174H107.717V20.1174ZM109.721 22.1991V26.8174H113.177C113.177 26.8174 114.932 26.8174 114.932 24.5083C114.932 22.1991 113.177 22.1991 113.177 22.1991H109.721Z" fill="white"/>
<g id="logo_play">
<path id="yellow" fill-rule="evenodd" clip-rule="evenodd" d="M28.3305 14.5667C34.356 17.9869 34.356 26.6695 28.3306 30.0898V30.0898C22.381 33.4671 15 29.1696 15 22.3283V22.3283C15 15.487 22.3809 11.1895 28.3305 14.5667V14.5667Z" fill="url(#paint0_linear_2744_3108)"/>
<mask id="mask0_2744_3108" style="mask-type:luminance" maskUnits="userSpaceOnUse" x="15" y="13" width="18" height="19">
<path id="yellow_2" fill-rule="evenodd" clip-rule="evenodd" d="M28.3305 14.5667C34.356 17.9869 34.356 26.6695 28.3306 30.0898V30.0898C22.381 33.4671 15 29.1696 15 22.3283V22.3283C15 15.487 22.3809 11.1895 28.3305 14.5667V14.5667Z" fill="white"/>
</mask>
<g mask="url(#mask0_2744_3108)">
<path id="blue" fill-rule="evenodd" clip-rule="evenodd" d="M14.9797 8.20752L28.9866 22.1011L14.7988 36.5437L14.9797 8.20752Z" fill="url(#paint1_linear_2744_3108)"/>
<path id="green" fill-rule="evenodd" clip-rule="evenodd" d="M12.0999 5.34741L28.9854 22.1052L34.0057 17.3256L12.0999 5.34741Z" fill="url(#paint2_linear_2744_3108)"/>
<path id="red" fill-rule="evenodd" clip-rule="evenodd" d="M28.9881 22.1021L36.6737 29.8331L13.7139 37.5642L28.9881 22.1021Z" fill="url(#paint3_linear_2744_3108)"/>
</g>
</g>
<rect x="0.5" y="0.5" width="155" height="45" rx="3.5" stroke="#3F444D"/>
</g>
<defs>
<linearGradient id="paint0_linear_2744_3108" x1="42.0041" y1="16.3637" x2="31.4961" y2="16.3637" gradientUnits="userSpaceOnUse">
<stop stop-color="#FBDA09"/>
<stop offset="1" stop-color="#FFBC00"/>
</linearGradient>
<linearGradient id="paint1_linear_2744_3108" x1="16.1745" y1="34.5967" x2="26.5733" y2="33.1398" gradientUnits="userSpaceOnUse">
<stop stop-color="#01E2FF"/>
<stop offset="1" stop-color="#01C4FF"/>
</linearGradient>
<linearGradient id="paint2_linear_2744_3108" x1="9.58536" y1="14.0399" x2="19.863" y2="27.4707" gradientUnits="userSpaceOnUse">
<stop stop-color="#28D781"/>
<stop offset="1" stop-color="#02F076"/>
</linearGradient>
<linearGradient id="paint3_linear_2744_3108" x1="22.3494" y1="19.8198" x2="13.571" y2="34.7527" gradientUnits="userSpaceOnUse">
<stop stop-color="#F2414E"/>
<stop offset="1" stop-color="#E02554"/>
</linearGradient>
</defs>
</svg>
