<svg width="156" height="46" viewBox="0 0 156 46" fill="none" xmlns="http://www.w3.org/2000/svg">
<g id="Special Button">
<rect x="0.5" y="0.5" width="155" height="45" rx="3.5" fill="#0A0D14"/>
<path id="App Store" fill-rule="evenodd" clip-rule="evenodd" d="M60.6656 35.337H63.165L57.6937 20.3632H55.1628L49.6914 35.337H52.1068L53.5035 31.3626H59.2794L60.6656 35.337ZM56.3079 23.082H56.4865L58.6813 29.4119H54.1026L56.3079 23.082ZM69.7918 23.8499C68.2376 23.8499 66.8934 24.6177 66.2003 25.9045H66.0322V24.0366H63.8584V39H66.1163V33.6248H66.2948C66.8934 34.8182 68.1851 35.5238 69.8128 35.5238C72.7008 35.5238 74.5386 33.272 74.5386 29.6816C74.5386 26.0913 72.7008 23.8499 69.7918 23.8499ZM69.1512 33.521C67.2609 33.521 66.0742 32.0475 66.0742 29.692C66.0742 27.3261 67.2609 25.8525 69.1617 25.8525C71.073 25.8525 72.2177 27.2949 72.2177 29.6816C72.2177 32.0786 71.073 33.521 69.1512 33.521ZM81.5019 23.8499C79.9477 23.8499 78.6035 24.6177 77.9104 25.9045H77.7423V24.0366H75.5685V39H77.8264V33.6248H78.0049C78.6035 34.8182 79.8952 35.5238 81.5229 35.5238C84.4109 35.5238 86.2487 33.272 86.2487 29.6816C86.2487 26.0913 84.4109 23.8499 81.5019 23.8499ZM80.8621 33.521C78.9718 33.521 77.7852 32.0475 77.7852 29.692C77.7852 27.3261 78.9718 25.8525 80.8726 25.8525C82.7839 25.8525 83.9286 27.2949 83.9286 29.6816C83.9286 32.0786 82.7839 33.521 80.8621 33.521ZM91.0293 31.3108C91.1973 33.988 93.4552 35.7002 96.8157 35.7002C100.407 35.7002 102.655 33.905 102.655 31.041C102.655 28.7892 101.373 27.544 98.2649 26.828L96.5952 26.4233C94.6209 25.9667 93.8227 25.3545 93.8227 24.2856C93.8227 22.9366 95.0619 22.0546 96.9207 22.0546C98.685 22.0546 99.9032 22.9159 100.124 24.296H102.413C102.277 21.7744 100.029 20 96.9522 20C93.6442 20 91.4389 21.7744 91.4389 24.4413C91.4389 26.6412 92.6886 27.9487 95.4295 28.5816L97.3828 29.0486C99.3886 29.5156 100.271 30.2004 100.271 31.3419C100.271 32.6701 98.8845 33.6352 96.9942 33.6352C94.9674 33.6352 93.5602 32.7324 93.3607 31.3108H91.0293ZM104.598 21.2971V24.0885H102.718V25.9667H104.598V32.3485C104.598 34.5276 105.595 35.3992 108.105 35.3992C108.546 35.3992 108.956 35.3474 109.313 35.2851V33.4276C108.998 33.4588 108.819 33.4795 108.473 33.4795C107.349 33.4795 106.855 32.9607 106.855 31.7777V25.9667H109.418V24.0885H106.855V21.2971H104.598ZM115.016 33.5728C113.052 33.5728 111.949 32.1512 111.949 29.6815C111.949 27.2325 113.052 25.8005 115.016 25.8005C116.969 25.8005 118.082 27.2325 118.082 29.6815C118.082 32.1408 116.969 33.5728 115.016 33.5728ZM115.016 35.5548C118.356 35.5548 120.403 33.3445 120.403 29.6815C120.403 26.0392 118.345 23.8186 115.016 23.8186C111.676 23.8186 109.618 26.0392 109.618 29.6815C109.618 33.3445 111.666 35.5548 115.016 35.5548ZM121.433 35.337H123.691V28.6647C123.691 27.077 124.898 26.0082 126.6 26.0082C126.978 26.0082 127.671 26.0808 127.849 26.1431V23.9432C127.608 23.8809 127.177 23.8498 126.852 23.8498C125.36 23.8498 124.1 24.6592 123.775 25.7695H123.607V24.0366H121.433V35.337ZM132.932 25.7175C134.602 25.7175 135.694 26.8694 135.747 28.6438H129.971C130.097 26.8797 131.262 25.7175 132.932 25.7175ZM135.736 32.2861C135.316 33.1681 134.382 33.6559 133.016 33.6559C131.21 33.6559 130.044 32.4003 129.971 30.4183V30.2938H138.047V29.5155C138.047 25.9666 136.125 23.8186 132.943 23.8186C129.719 23.8186 127.671 26.1119 127.671 29.723C127.671 33.3342 129.677 35.5548 132.953 35.5548C135.568 35.5548 137.396 34.3096 137.91 32.2861H135.736Z" fill="white"/>
<path id="Download on the" fill-rule="evenodd" clip-rule="evenodd" d="M51.6777 8.37003V15.8906H54.2692C56.408 15.8906 57.6465 14.5094 57.6465 12.1068C57.6465 9.74072 56.3981 8.37003 54.2692 8.37003H51.6777ZM52.7919 9.43322H54.1448C55.6321 9.43322 56.5125 10.4235 56.5125 12.1225C56.5125 13.8476 55.647 14.8274 54.1448 14.8274H52.7919V9.43322ZM61.5667 15.0047C60.6365 15.0047 60.1143 14.2907 60.1143 13.0503C60.1143 11.8203 60.6365 11.1011 61.5667 11.1011C62.4918 11.1011 63.0191 11.8203 63.0191 13.0503C63.0191 14.2854 62.4918 15.0047 61.5667 15.0047ZM61.5674 15.9999C63.1491 15.9999 64.119 14.8898 64.119 13.0501C64.119 11.2208 63.1441 10.1055 61.5674 10.1055C59.9856 10.1055 59.0107 11.2208 59.0107 13.0501C59.0107 14.8898 59.9807 15.9999 61.5674 15.9999ZM72.5009 10.2151H71.4315L70.4665 14.546H70.382L69.2678 10.2151H68.2431L67.129 14.546H67.0494L66.0794 10.2151H64.9951L66.4873 15.8907H67.5866L68.7007 11.7109H68.7853L69.9044 15.8907H71.0137L72.5009 10.2151ZM73.8594 15.8905H74.9288V12.5706C74.9288 11.6846 75.456 11.1322 76.3165 11.1322C77.1124 11.1322 77.5003 11.5856 77.5003 12.4977V15.8905H78.5697V12.2162C78.5697 10.8664 77.8883 10.1055 76.6796 10.1055C75.8639 10.1055 75.2322 10.4859 74.9686 11.1165H74.889V10.2149H73.8594V15.8905ZM80.377 15.8906H81.4464V8H80.377V15.8906ZM85.59 15.0047C84.6599 15.0047 84.1376 14.2907 84.1376 13.0503C84.1376 11.8203 84.6599 11.1011 85.59 11.1011C86.5152 11.1011 87.0424 11.8203 87.0424 13.0503C87.0424 14.2854 86.5152 15.0047 85.59 15.0047ZM85.59 15.9999C87.1717 15.9999 88.1417 14.8898 88.1417 13.0501C88.1417 11.2208 87.1668 10.1055 85.59 10.1055C84.0083 10.1055 83.0334 11.2208 83.0334 13.0501C83.0334 14.8898 84.0033 15.9999 85.59 15.9999ZM91.451 15.0411C90.8691 15.0411 90.4463 14.744 90.4463 14.2333C90.4463 13.7329 90.7845 13.4671 91.5306 13.415L92.8537 13.3264V13.8007C92.8537 14.5043 92.2568 15.0411 91.451 15.0411ZM91.1776 15.9843C91.8889 15.9843 92.4808 15.6612 92.8041 15.0931H92.8887V15.8905H93.9183V12.013C93.9183 10.8143 93.1523 10.1055 91.7944 10.1055C90.5658 10.1055 89.6904 10.7309 89.581 11.7055H90.6156C90.7349 11.3042 91.1478 11.0748 91.7447 11.0748C92.4758 11.0748 92.8539 11.4136 92.8539 12.013V12.5029L91.3865 12.5915C90.0983 12.6748 89.3721 13.2638 89.3721 14.2853C89.3721 15.3224 90.1331 15.9843 91.1776 15.9843ZM97.6739 15.9844C98.42 15.9844 99.0517 15.6143 99.375 14.9941H99.4595V15.8906H100.484V8H99.4148V11.1166H99.3352C99.0417 10.4912 98.415 10.1212 97.6739 10.1212C96.306 10.1212 95.4256 11.2573 95.4256 13.0502C95.4256 14.8482 96.2961 15.9844 97.6739 15.9844ZM97.9787 11.127C98.874 11.127 99.4361 11.8722 99.4361 13.0553C99.4361 14.2436 98.879 14.9784 97.9787 14.9784C97.0734 14.9784 96.5312 14.254 96.5312 13.0501C96.5312 11.8566 97.0784 11.127 97.9787 11.127ZM107.669 15.0046C106.739 15.0046 106.217 14.2906 106.217 13.0502C106.217 11.8202 106.739 11.101 107.669 11.101C108.594 11.101 109.121 11.8202 109.121 13.0502C109.121 14.2853 108.594 15.0046 107.669 15.0046ZM107.669 16C109.251 16 110.221 14.8899 110.221 13.0502C110.221 11.2208 109.246 10.1055 107.669 10.1055C106.087 10.1055 105.112 11.2208 105.112 13.0502C105.112 14.8899 106.082 16 107.669 16ZM111.759 15.8906H112.828V12.5707C112.828 11.6847 113.355 11.1322 114.216 11.1322C115.012 11.1322 115.4 11.5857 115.4 12.4977V15.8906H116.469V12.2163C116.469 10.8664 115.788 10.1055 114.579 10.1055C113.763 10.1055 113.131 10.486 112.868 11.1166H112.788V10.215H111.759V15.8906ZM121.644 8.83911V10.2411H120.754V11.1844H121.644V14.3896C121.644 15.4841 122.117 15.9218 123.306 15.9218C123.514 15.9218 123.708 15.8958 123.878 15.8645V14.9316C123.728 14.9473 123.644 14.9577 123.48 14.9577C122.947 14.9577 122.714 14.6971 122.714 14.103V11.1844H123.927V10.2411H122.714V8.83911H121.644ZM125.45 15.8906H126.519V12.5759C126.519 11.716 127.062 11.1375 127.937 11.1375C128.743 11.1375 129.146 11.5961 129.146 12.5029V15.8906H130.215V12.2267C130.215 10.8769 129.519 10.1107 128.3 10.1107C127.484 10.1107 126.858 10.4912 126.594 11.127H126.509V8H125.45V15.8906ZM134.201 11.0593C134.991 11.0593 135.509 11.6378 135.534 12.529H132.798C132.858 11.643 133.41 11.0593 134.201 11.0593ZM135.529 14.3582C135.33 14.8012 134.887 15.0462 134.241 15.0462C133.385 15.0462 132.833 14.4156 132.798 13.4201V13.3576H136.623V12.9667C136.623 11.1843 135.713 10.1055 134.206 10.1055C132.679 10.1055 131.709 11.2573 131.709 13.0709C131.709 14.8846 132.659 15.9999 134.211 15.9999C135.449 15.9999 136.315 15.3745 136.559 14.3582H135.529Z" fill="white"/>
<path id="Logo apple" fill-rule="evenodd" clip-rule="evenodd" d="M34.6142 9.00024C34.8035 10.7101 34.1214 12.3951 33.1245 13.6336C32.0842 14.8529 30.42 15.7855 28.7992 15.6654C28.587 14.02 29.4083 12.2705 30.3276 11.2031C31.3667 9.99174 33.1713 9.0637 34.6142 9.00024ZM39.9201 18.864C39.7392 18.9713 36.7415 20.7487 36.7743 24.3734C36.8131 28.7507 40.6297 30.1978 40.6753 30.2125C40.6525 30.3145 40.0776 32.3031 38.6461 34.3178C37.4507 36.0946 36.1983 37.8317 34.209 37.8612C33.263 37.8834 32.6243 37.6133 31.9586 37.3318C31.2647 37.0384 30.5415 36.7326 29.4103 36.7326C28.2112 36.7326 27.4559 37.0485 26.7276 37.3531C26.0974 37.6167 25.4874 37.8718 24.6276 37.9065C22.733 37.9756 21.2855 36.0119 20.0468 34.251C17.5704 30.6578 15.6427 24.1253 18.2274 19.68C19.4799 17.4998 21.7634 16.0959 24.2044 16.0585C25.2793 16.0367 26.3103 16.4482 27.214 16.8089C27.9052 17.0848 28.5219 17.331 29.0271 17.331C29.4708 17.331 30.0702 17.0947 30.7689 16.8192C31.8699 16.3851 33.2174 15.8538 34.59 15.9973C35.5288 16.0245 38.2001 16.3656 39.9237 18.8619L39.9201 18.864Z" fill="white"/>
<rect x="0.5" y="0.5" width="155" height="45" rx="3.5" stroke="#3F444D"/>
</g>
</svg>
