<svg width="52" height="53" viewBox="0 0 52 53" fill="none" xmlns="http://www.w3.org/2000/svg">
<path d="M43.3445 26.7262C43.3445 36.6068 35.4682 44.6166 25.7522 44.6166C16.0363 44.6166 8.15991 36.6068 8.15991 26.7262C8.15991 16.8455 16.0363 8.8357 25.7522 8.8357C35.4682 8.8357 43.3445 16.8455 43.3445 26.7262Z" fill="#E1E6EF"/>
<path d="M19.3765 42.0073C19.0524 41.8675 18.6782 42.0202 18.5407 42.3498C18.4032 42.6794 18.5544 43.06 18.8776 43.1998C21.0553 44.1414 23.3687 44.6182 25.754 44.6182C26.1782 44.6182 26.6043 44.6024 27.0185 44.5719C27.1241 44.5645 27.2288 44.5561 27.3345 44.546C28.9113 44.4034 30.4563 44.046 31.9312 43.4831C34.8099 42.385 37.37 40.5241 39.3347 38.1002C39.6069 37.7641 39.8664 37.4197 40.1122 37.0669C41.7127 34.7736 42.7524 32.1423 43.1557 29.3611C43.1867 29.1472 43.214 28.9315 43.2377 28.7157C43.2377 28.7148 43.2377 28.7148 43.2377 28.7139C43.3096 28.0621 43.346 27.3936 43.346 26.727C43.346 25.7725 43.2714 24.8133 43.1239 23.8763C42.5658 20.3349 40.9853 17.0769 38.5545 14.4558C38.0246 13.8845 37.4629 13.3522 36.8729 12.8615C36.5361 12.5809 36.1892 12.3134 35.8341 12.0606C35.7449 11.9977 35.6557 11.9347 35.5665 11.8736C35.4244 11.7764 35.2815 11.6819 35.1368 11.5894C34.768 11.3523 34.392 11.1301 34.0069 10.9218C33.8813 10.8542 33.7547 10.7866 33.6282 10.7218C33.62 10.7181 33.6127 10.7135 33.6045 10.7098C33.3478 10.5793 33.0874 10.4561 32.8243 10.3385C32.7387 10.3006 32.6522 10.2626 32.5657 10.2256C31.618 9.82191 30.6338 9.50064 29.6187 9.26918C28.3587 8.98216 27.0577 8.83588 25.754 8.83588C24.9756 8.83588 24.1935 8.88772 23.4297 8.99049C19.2372 9.55434 15.3779 11.6486 12.5647 14.8882C9.99186 17.85 8.4669 21.5811 8.20288 25.504C8.17557 25.9095 8.16191 26.3178 8.16191 26.727C8.16191 27.0455 8.17011 27.3631 8.18649 27.6797C8.23566 28.6315 8.35856 29.5759 8.55339 30.4989C9.27718 33.9274 10.9697 37.0429 13.4469 39.5102C13.6982 39.7602 14.1015 39.7565 14.3482 39.501C14.5949 39.2455 14.5904 38.8353 14.3391 38.5844C12.4491 36.7021 11.0525 34.4125 10.2422 31.8905C10.7748 32.1729 11.4103 32.2377 11.9857 32.0618C12.4427 31.9229 12.8205 31.6498 13.1228 31.4313C13.558 31.1183 13.9922 30.8063 14.4265 30.4934L14.5294 30.4193C14.7388 30.2684 15.1284 29.9879 15.367 30.0388C15.5527 30.0777 15.7321 30.3202 15.9396 30.6017C16.1691 30.9119 16.4285 31.2628 16.8218 31.4979C17.5138 31.9099 18.3076 31.7905 18.9941 31.6192C19.4875 31.4952 19.9773 31.3535 20.458 31.1952C20.5637 31.5748 20.7266 31.9164 20.8614 32.1988C20.9788 32.446 21.0963 32.6932 21.2146 32.9386C21.2965 33.1108 21.3739 33.2728 21.3912 33.4052C21.4167 33.5922 21.3384 33.8403 21.2556 34.1033C21.1372 34.481 21.0025 34.9088 21.0753 35.3948C21.2119 36.317 21.9994 36.8558 22.5739 37.2484L22.603 37.2688C23.6682 37.9956 24.625 38.8733 25.4481 39.8769C25.764 40.263 26.0744 40.6833 26.2046 41.1472C26.323 41.5647 26.3075 42.0554 26.2902 42.5739C26.282 42.8165 26.2747 43.0637 26.2802 43.3127C26.1054 43.3183 25.9306 43.322 25.7558 43.322C23.5407 43.322 21.3949 42.8794 19.3765 42.0073ZM39.0725 30.7674C38.9778 30.5221 38.8877 30.2915 38.8886 30.1064C38.8904 29.8175 39.1153 29.487 39.5568 29.1231C39.7389 28.9731 39.8045 28.9528 39.819 28.9509C39.85 28.9509 39.9438 28.9805 40.0048 29L40.0385 29.0111C40.6229 29.1944 41.2466 29.2972 41.8739 29.3138C41.8711 29.3305 41.8684 29.3472 41.8657 29.3648C41.8438 29.5046 41.8211 29.6435 41.7956 29.7823C41.7919 29.8008 41.7883 29.8184 41.7856 29.837C41.7619 29.9656 41.7364 30.0934 41.7091 30.2212C41.7036 30.249 41.6972 30.2767 41.6918 30.3045C41.6626 30.4406 41.6317 30.5767 41.5989 30.7119C41.5916 30.7424 41.5844 30.7721 41.5762 30.8026C41.5425 30.9387 41.507 31.0748 41.4705 31.2109C41.4696 31.2155 41.4678 31.2202 41.4669 31.2248C41.4287 31.3618 41.3886 31.4989 41.3476 31.635C41.3385 31.6646 41.3294 31.6942 41.3203 31.7238C41.2794 31.8572 41.2366 31.9896 41.192 32.121C41.1838 32.146 41.1747 32.172 41.1656 32.1969C41.1228 32.321 41.0791 32.4442 41.0345 32.5664C41.0281 32.583 41.0217 32.6006 41.0153 32.6173C40.9662 32.7488 40.9152 32.8802 40.8624 33.0108C40.8506 33.0404 40.8387 33.0691 40.8269 33.0987C40.7741 33.2283 40.7195 33.358 40.663 33.4867C40.6557 33.5043 40.6475 33.5218 40.6393 33.5394C40.5865 33.6589 40.5319 33.7783 40.4764 33.8968C40.4654 33.919 40.4554 33.9422 40.4445 33.9644C40.3844 34.0903 40.3225 34.2162 40.2588 34.3412C40.2451 34.3681 40.2315 34.3949 40.2169 34.4218C40.1513 34.5495 40.0849 34.6764 40.0157 34.8014C40.013 34.806 40.0102 34.8116 40.0075 34.8162C39.9401 34.9384 39.8709 35.0606 39.7999 35.181C39.7854 35.206 39.7708 35.231 39.7562 35.2569C39.6852 35.3772 39.6124 35.4976 39.5377 35.6161C39.5232 35.6393 39.5086 35.6624 39.494 35.6846C39.4221 35.7985 39.3493 35.9115 39.2746 36.0235C39.2673 36.0346 39.26 36.0466 39.2519 36.0577C39.1726 36.1763 39.0916 36.2929 39.0088 36.4096C38.9997 36.4225 38.9897 36.4364 38.9805 36.4494L38.8258 36.1115C38.6228 35.6689 38.4134 35.2115 38.326 34.7606C38.2422 34.3292 38.285 33.9375 38.447 33.657C38.5126 33.5431 38.61 33.4219 38.7147 33.2941C38.9359 33.021 39.2118 32.6821 39.3065 32.2182C39.4185 31.6609 39.2264 31.1656 39.0725 30.7674ZM31.8802 19.673C31.7937 19.2378 31.5588 18.9027 31.3713 18.6342L31.293 18.5212C30.8059 17.8222 30.3188 17.1232 29.8317 16.4251C29.7152 16.2575 29.595 16.0853 29.5541 15.9381C29.5231 15.8251 29.5222 15.6724 29.524 15.5344C29.5331 14.6215 29.6697 13.717 29.8144 12.7606C29.9146 12.0939 30.0175 11.4116 30.0748 10.7228C30.0894 10.7265 30.103 10.7311 30.1176 10.7348C30.2751 10.7792 30.4317 10.8255 30.5874 10.8755C30.6101 10.8829 30.632 10.8903 30.6548 10.8968C30.8159 10.9487 30.9752 11.0024 31.1336 11.0588C31.1446 11.0625 31.1564 11.0672 31.1673 11.0709C31.3285 11.1292 31.4896 11.1894 31.648 11.2523C31.6562 11.2551 31.6635 11.2579 31.6717 11.2616C31.8301 11.3246 31.9867 11.3903 32.1424 11.4588C32.1615 11.4671 32.1815 11.4755 32.2006 11.4838C32.3509 11.5495 32.4993 11.619 32.6468 11.6894C32.6695 11.7005 32.6932 11.7116 32.7159 11.7227C32.8616 11.793 33.0073 11.8662 33.1502 11.9412C33.1721 11.9523 33.1948 11.9643 33.2167 11.9764C33.3623 12.0532 33.5062 12.1319 33.6491 12.2134C33.6655 12.2226 33.681 12.2319 33.6974 12.2412C33.8467 12.3263 33.9942 12.4134 34.1408 12.5032C34.1435 12.505 34.1462 12.5069 34.1489 12.5087C34.2973 12.6004 34.4439 12.6939 34.5887 12.7893C34.5978 12.7957 34.6078 12.8013 34.6169 12.8078C34.7571 12.9004 34.8955 12.9957 35.0321 13.0929C35.0494 13.105 35.0667 13.117 35.084 13.13C35.2169 13.2253 35.348 13.3226 35.4782 13.4207C35.4973 13.4355 35.5173 13.4503 35.5364 13.4651C35.6657 13.5642 35.7941 13.6651 35.9197 13.7688C35.937 13.7827 35.9543 13.7975 35.9716 13.8114C36.1 13.9169 36.2274 14.0243 36.3531 14.1345C36.364 14.1438 36.374 14.153 36.3849 14.1623C36.6471 14.3928 36.9021 14.6308 37.1497 14.878C37.1597 14.8882 37.1706 14.8983 37.1806 14.9085C37.2981 15.0261 37.4137 15.1465 37.5284 15.2678C37.5439 15.2844 37.5594 15.3002 37.5749 15.3168C37.6859 15.4363 37.7961 15.5576 37.9035 15.6798C37.9199 15.6983 37.9354 15.7159 37.9518 15.7344C38.0592 15.8575 38.1657 15.9825 38.2695 16.1094C38.2832 16.1251 38.2959 16.1418 38.3087 16.1575C38.4152 16.2881 38.5208 16.4204 38.6237 16.5547C38.63 16.563 38.6364 16.5714 38.6428 16.5797C38.7493 16.7186 38.8531 16.8593 38.9551 17.001C38.9569 17.0037 38.9587 17.0065 38.9614 17.0093C39.0616 17.1491 39.159 17.2907 39.2546 17.4343C39.2646 17.45 39.2755 17.4648 39.2855 17.4796C39.3766 17.6176 39.4658 17.7565 39.5541 17.8972C39.5669 17.9175 39.5796 17.9388 39.5924 17.9592C39.6779 18.0981 39.7617 18.2379 39.8436 18.3795C39.8564 18.4008 39.8682 18.4231 39.881 18.4444C39.9629 18.5879 40.043 18.7323 40.1204 18.8777C40.1295 18.8953 40.1386 18.9128 40.1486 18.9304C40.2287 19.0823 40.307 19.235 40.3826 19.3887C40.3853 19.3943 40.3881 19.4008 40.3917 19.4072C40.4682 19.5637 40.5419 19.7211 40.6129 19.8794C40.6175 19.8896 40.622 19.8989 40.6266 19.9091C40.6958 20.0637 40.7622 20.2201 40.8269 20.3775C40.8351 20.3979 40.8442 20.4192 40.8524 20.4396C40.9143 20.5923 40.9735 20.746 41.0317 20.8997C41.0408 20.9247 41.0508 20.9497 41.0599 20.9756C41.1164 21.1293 41.171 21.2839 41.2229 21.4395C41.2311 21.4636 41.2393 21.4886 41.2475 21.5136C41.2994 21.6719 41.3495 21.8311 41.3968 21.9922C41.4023 22.0107 41.4077 22.0293 41.4132 22.0478C41.4624 22.2163 41.5088 22.3848 41.5525 22.5551C41.5534 22.5579 41.5534 22.5598 41.5543 22.5625C41.598 22.7329 41.6381 22.9033 41.6763 23.0755C41.679 23.0875 41.6818 23.0986 41.6845 23.1106C41.6599 23.1134 41.6353 23.1181 41.6098 23.1227C41.1911 23.2014 40.9161 23.4764 40.7149 23.6763C40.6384 23.7523 40.5665 23.8245 40.5055 23.8671C40.328 23.993 40.0148 23.9911 39.7098 23.8634C39.4094 23.7374 39.1235 23.5162 38.8212 23.2829C38.7566 23.2329 38.691 23.1819 38.6264 23.1329C38.1029 22.7357 37.6659 22.6098 37.3236 22.6098C37.0086 22.6098 36.7737 22.7162 36.6217 22.8153C36.4359 22.9375 36.313 23.0875 36.2147 23.2088C36.1792 23.2514 36.1273 23.3153 36.1018 23.3366C36.09 23.3403 36.0499 23.3486 35.9589 23.3458C35.5883 23.3347 35.2141 23.1875 34.9328 22.9421C34.8245 22.8486 34.718 22.731 34.606 22.6079C34.4876 22.4774 34.3647 22.3431 34.2191 22.2107C33.7766 21.8117 33.2704 21.6237 32.7979 21.6802C32.6222 21.7006 32.471 21.7524 32.349 21.7941C32.2844 21.8163 32.2234 21.8367 32.1806 21.8459C31.9976 21.883 31.76 21.7265 31.7181 21.5423C31.6808 21.3747 31.7363 21.1358 31.7946 20.8821C31.8747 20.5247 31.9685 20.1202 31.8802 19.673ZM23.3113 36.1938L23.2822 36.1744C22.8616 35.8874 22.3854 35.5615 22.3326 35.2023C22.3044 35.0162 22.3836 34.7643 22.4673 34.4986C22.5839 34.1283 22.7159 33.7079 22.6522 33.2302C22.6066 32.8941 22.4701 32.6062 22.359 32.3729C22.2416 32.1266 22.1241 31.8812 22.0067 31.634C21.7736 31.1461 21.5979 30.7443 21.6261 30.3749C21.6434 30.1545 21.5487 29.9416 21.3758 29.8083C21.2028 29.6749 20.9752 29.6397 20.7712 29.7157C20.0984 29.9666 19.3965 30.1842 18.6873 30.3619C18.2503 30.4712 17.7632 30.5591 17.4655 30.3814C17.2925 30.2777 17.1296 30.0573 16.9566 29.824C16.6552 29.4166 16.281 28.9102 15.6246 28.7713C14.8435 28.6046 14.1589 29.0981 13.791 29.3629L13.6882 29.437C13.2548 29.749 12.8205 30.0619 12.3844 30.3749C12.1341 30.5563 11.8746 30.7434 11.6179 30.8211C11.3265 30.91 10.9879 30.8582 10.7348 30.685C10.6337 30.6165 10.529 30.5184 10.4179 30.4147C10.2477 30.2554 10.0547 30.0749 9.80522 29.9323C9.78155 29.9184 9.75697 29.9055 9.73239 29.8934C9.72966 29.8777 9.72602 29.862 9.72328 29.8453C9.71236 29.7879 9.70234 29.7296 9.69233 29.6722C9.67867 29.5916 9.66411 29.5111 9.65136 29.4305C9.64226 29.3713 9.63315 29.3129 9.62405 29.2537C9.61221 29.174 9.60038 29.0935 9.58945 29.0129C9.58126 28.9537 9.57398 28.8935 9.56669 28.8343C9.55668 28.7537 9.54757 28.6732 9.53847 28.5926C9.5321 28.5334 9.52572 28.4741 9.51935 28.4148C9.51116 28.3324 9.50387 28.25 9.49659 28.1676C9.49204 28.1093 9.48658 28.0519 9.48202 27.9936C9.47565 27.9084 9.47019 27.8223 9.46564 27.7362C9.46199 27.6816 9.45835 27.6269 9.45562 27.5714C9.45107 27.477 9.44743 27.3825 9.4447 27.2881C9.44287 27.2418 9.44105 27.1955 9.44014 27.1492C9.4365 27.0085 9.43468 26.8678 9.43468 26.727C9.43468 25.8197 9.50751 24.9272 9.64772 24.0559C9.68778 23.8069 9.7333 23.5597 9.78428 23.3143C9.83527 23.069 9.89171 22.8255 9.95362 22.5838C10.0155 22.3422 10.082 22.1024 10.1539 21.8654C10.2623 21.5089 10.3815 21.158 10.5117 20.8118C10.7293 20.235 10.9778 19.673 11.2555 19.1276C11.3666 18.9091 11.4822 18.6943 11.6024 18.4814C12.7441 16.463 14.2927 14.7021 16.1399 13.3253C16.1472 13.3198 16.1554 13.3142 16.1636 13.3087C16.5979 12.9865 17.0485 12.6856 17.5138 12.4078C17.6057 12.3532 17.6977 12.2995 17.7905 12.2458C17.928 12.1671 18.0664 12.0902 18.2066 12.0162C18.4223 11.9014 18.6418 11.7903 18.8639 11.6847C18.8967 11.669 18.9295 11.6532 18.9622 11.6375C20.4016 10.9644 21.9575 10.4978 23.5954 10.2784C24.3046 10.183 25.0311 10.1348 25.7531 10.1348C26.7836 10.1348 27.8115 10.2339 28.8166 10.4274C28.7693 11.1264 28.6646 11.8292 28.5535 12.5652C28.4087 13.5253 28.2594 14.5169 28.2485 15.5196C28.2449 15.7631 28.2522 16.0242 28.3268 16.2936C28.4279 16.6547 28.6282 16.9436 28.7902 17.1759C29.2782 17.875 29.7653 18.5731 30.2514 19.2721L30.3306 19.386C30.4617 19.573 30.5965 19.7665 30.6293 19.9313C30.6629 20.0998 30.6083 20.3359 30.5501 20.5849C30.4645 20.9525 30.368 21.37 30.4718 21.8311C30.6675 22.7033 31.5624 23.2921 32.4283 23.1171C32.5502 23.0921 32.6559 23.056 32.7496 23.0245C32.8252 22.9986 32.8971 22.9745 32.9426 22.969C33.0455 22.956 33.2112 23.0384 33.3687 23.181C33.467 23.2699 33.5636 23.3764 33.6664 23.4893C33.7993 23.6356 33.9368 23.7865 34.1007 23.9291C34.6051 24.3698 35.2506 24.6235 35.917 24.6439C36.1236 24.6494 36.4341 24.6383 36.7309 24.4652C36.9458 24.3402 37.0878 24.1661 37.1907 24.0402C37.228 23.9939 37.2853 23.9245 37.3072 23.9087C37.3391 23.8995 37.5248 23.9208 37.8607 24.1754C37.9226 24.2226 37.9845 24.2698 38.0465 24.318C38.4006 24.592 38.7666 24.8744 39.2209 25.0651C39.5323 25.1957 39.85 25.2595 40.155 25.2595C40.5501 25.2595 40.9225 25.1503 41.2284 24.9355C41.3777 24.83 41.4979 24.7105 41.6044 24.605C41.6754 24.5337 41.7956 24.4142 41.8384 24.4004C41.8557 24.4004 41.8821 24.4087 41.9139 24.4207C42.0177 25.1836 42.0705 25.9595 42.0705 26.7317C42.0705 27.164 42.0532 27.5964 42.0204 28.0241C41.4705 28.0204 40.9234 27.9371 40.4135 27.7769L40.3826 27.7668C40.2269 27.7177 40.0303 27.6556 39.7963 27.6594C39.362 27.6686 39.0261 27.8964 38.7548 28.1195C38.0009 28.7398 37.6167 29.4074 37.6131 30.1036C37.6104 30.5378 37.7569 30.9146 37.8862 31.247C37.9973 31.5331 38.0929 31.7803 38.0574 31.959C38.0264 32.1081 37.8826 32.2858 37.7305 32.4738C37.6049 32.6284 37.4629 32.8043 37.3454 33.0071C37.0268 33.5598 36.9303 34.2736 37.0741 35.0162C37.1916 35.6217 37.4456 36.1753 37.6686 36.6623L38.0929 37.5891C36.5434 39.4093 34.6251 40.8666 32.4811 41.8545C32.5248 41.3629 32.5448 40.8703 32.5384 40.3796C32.5366 40.263 32.5339 40.1454 32.5311 40.0287C32.5202 39.5899 32.5093 39.1751 32.5748 38.7862C32.6768 38.1779 32.9709 37.5993 33.2831 36.9864C33.4297 36.6975 33.5818 36.3985 33.7165 36.0892C34.3228 34.6967 34.3046 33.382 33.6655 32.4812C33.1384 31.7396 32.3208 31.4202 31.5998 31.1387C31.4122 31.0656 31.2356 30.9961 31.0663 30.9221C30.3152 30.5906 29.6141 30.0934 28.8722 29.5675C27.7268 28.7556 26.5478 27.9195 25.1449 27.7186C25.1731 27.0835 25.1121 26.3419 24.6815 25.7215C24.4575 25.3994 24.1698 25.167 23.9176 24.9614L23.9067 24.9522C23.1292 24.3207 22.3372 23.5606 22.3563 22.7042C22.3636 22.3589 22.5083 21.9876 22.6622 21.5941C22.857 21.0941 23.0782 20.5266 23.0537 19.8915C23.0254 19.1563 22.6767 18.5184 22.3699 17.9555C22.0577 17.3843 21.7882 16.8908 21.8956 16.4445C21.9766 16.1103 22.2789 15.8029 22.5984 15.477C22.7004 15.3733 22.806 15.2659 22.908 15.1539C23.5744 14.4243 24.0369 13.4911 24.2463 12.455C24.3173 12.1041 24.0952 11.7616 23.7501 11.6903C23.4051 11.6181 23.0682 11.844 22.9981 12.1949C22.8361 12.9985 22.4819 13.716 21.9748 14.2715C21.8883 14.366 21.7964 14.4604 21.698 14.5595C21.2884 14.9761 20.824 15.4483 20.6574 16.1353C20.4316 17.075 20.8696 17.8768 21.2556 18.5842C21.5169 19.0628 21.7636 19.5146 21.78 19.9424C21.7936 20.3044 21.6398 20.6988 21.4777 21.1164C21.2993 21.5756 21.0963 22.0968 21.0835 22.6736C21.0507 24.0958 22.0904 25.1355 23.1128 25.965L23.1247 25.9743C23.3295 26.14 23.5234 26.2974 23.6427 26.4696C23.9377 26.8937 23.8967 27.5547 23.8248 28.2528C23.8057 28.4371 23.8648 28.6213 23.9877 28.7574C24.1107 28.8944 24.2855 28.9667 24.4675 28.9685C24.483 28.9685 24.4976 28.9685 24.5121 28.9685C25.8022 28.9685 26.9412 29.7759 28.1447 30.6295C28.9058 31.1693 29.6924 31.7266 30.5601 32.1099C30.754 32.1951 30.9525 32.2729 31.1437 32.3479C31.7527 32.5858 32.3281 32.8108 32.6331 33.2395C33.1539 33.9737 32.7505 35.1097 32.5521 35.5633C32.4328 35.8365 32.2962 36.105 32.1515 36.3901C31.8083 37.0641 31.4541 37.7613 31.3185 38.5677C31.232 39.0816 31.2447 39.5797 31.2575 40.0621C31.2602 40.1741 31.2629 40.2861 31.2647 40.3972C31.2729 41.0648 31.2301 41.7369 31.1364 42.4017C31.12 42.4072 31.1036 42.4128 31.0872 42.4183C30.9725 42.4591 30.8569 42.498 30.7412 42.5359C30.7212 42.5424 30.7021 42.5489 30.6821 42.5554C30.5546 42.5961 30.4262 42.6359 30.2979 42.673C30.2678 42.6813 30.2387 42.6905 30.2086 42.6989C30.0803 42.7359 29.951 42.772 29.8217 42.8054C29.819 42.8063 29.8153 42.8072 29.8126 42.8081C29.6815 42.8424 29.5495 42.8739 29.4175 42.9053C29.3865 42.9127 29.3547 42.9202 29.3237 42.9266C29.1944 42.9563 29.0642 42.984 28.9341 43.01C28.9131 43.0146 28.8913 43.0183 28.8703 43.022C28.7538 43.0451 28.6373 43.0664 28.5198 43.0868C28.4907 43.0924 28.4606 43.097 28.4315 43.1025C28.3013 43.1248 28.172 43.1442 28.0409 43.1627C28.0109 43.1674 27.9809 43.1711 27.9499 43.1748C27.8315 43.1905 27.7132 43.2062 27.5948 43.2192C27.5794 43.2211 27.5639 43.2229 27.5493 43.2248C27.5466 43.0313 27.5539 42.8285 27.5602 42.6202C27.5794 42.0239 27.5994 41.4064 27.4255 40.7926C27.2298 40.0972 26.8082 39.5214 26.4222 39.0501C25.5245 37.9493 24.4766 36.9882 23.3113 36.1938Z" fill="#3F444D"/>
<path d="M16.6224 40.5398C16.5997 40.5037 16.5733 40.4713 16.5432 40.4407C16.5141 40.4111 16.4813 40.3842 16.4467 40.3602C16.4121 40.337 16.3748 40.3167 16.3366 40.3009C16.2983 40.2843 16.2583 40.2722 16.2173 40.2639C16.1354 40.2472 16.0507 40.2472 15.9679 40.2639C15.9278 40.2722 15.8877 40.2843 15.8495 40.3009C15.8104 40.3167 15.7739 40.337 15.7393 40.3602C15.7038 40.3842 15.6711 40.4111 15.6419 40.4407C15.6128 40.4713 15.5864 40.5037 15.5627 40.5398C15.54 40.575 15.5199 40.612 15.5045 40.6509C15.4881 40.6907 15.4762 40.7314 15.468 40.7722C15.4598 40.8148 15.4553 40.8574 15.4553 40.899C15.4553 41.0694 15.5236 41.237 15.6419 41.3573C15.6711 41.3869 15.7038 41.4147 15.7393 41.4379C15.7739 41.461 15.8104 41.4814 15.8495 41.498C15.8877 41.5138 15.9278 41.5258 15.9679 41.5351C16.0097 41.5434 16.0516 41.5471 16.0926 41.5471C16.1345 41.5471 16.1763 41.5434 16.2173 41.5351C16.2583 41.5258 16.2983 41.5138 16.3366 41.498C16.3748 41.4814 16.4121 41.461 16.4467 41.4379C16.4813 41.4147 16.5141 41.3869 16.5432 41.3573C16.5733 41.3277 16.5997 41.2944 16.6224 41.2592C16.6452 41.224 16.6652 41.186 16.6816 41.1471C16.6971 41.1083 16.7089 41.0675 16.7171 41.0259C16.7253 40.9842 16.7299 40.9416 16.7299 40.899C16.7299 40.8574 16.7253 40.8148 16.7171 40.7722C16.7089 40.7314 16.6971 40.6907 16.6816 40.6509C16.6652 40.612 16.6452 40.575 16.6224 40.5398Z" fill="#3F444D"/>
<path d="M6.30142 8.15654L9.14412 11.1744L5.27481 14.9437L2.43212 11.9258L6.30142 8.15654Z" fill="white"/>
<path d="M4.31477 8.98173L6.13117 10.9101L3.36807 13.6018L1.55167 11.6734L4.31477 8.98173Z" fill="#E1E6EF"/>
<path d="M11.9446 3.9463L13.9932 6.12115L11.0362 9.00166L8.98763 6.82681L11.9446 3.9463Z" fill="white"/>
<path d="M12.8217 0.168105L14.4929 1.94225L11.5359 4.82276L9.86477 3.04861L12.8217 0.168105Z" fill="#E1E6EF"/>
<path fill-rule="evenodd" clip-rule="evenodd" d="M11.8979 0.313811C12.3094 -0.104604 12.9764 -0.104604 13.3879 0.313811L14.3812 1.32397C14.7926 1.74238 14.7926 2.42078 14.3812 2.8392L12.3946 4.8595C11.9831 5.27792 11.3161 5.27792 10.9046 4.8595L10.7165 4.66826L9.97367 5.42375L11.0646 6.53323C11.7504 7.23058 11.7504 8.36123 11.0646 9.05858L10.0713 10.0688C9.38557 10.7662 8.27377 10.7662 7.58803 10.0688L6.49704 8.9593L5.76458 9.70415L5.95263 9.89537C6.36408 10.3138 6.36408 10.9922 5.95263 11.4107L3.96599 13.4309C3.55455 13.8494 2.88747 13.8494 2.47602 13.4309L1.48271 12.4208C1.07126 12.0024 1.07126 11.3239 1.48271 10.9056L3.46934 8.88523C3.88078 8.4668 4.54787 8.4668 4.95932 8.88523L5.26792 9.19908L6.00038 8.45423L4.60808 7.0383C3.92234 6.34094 3.92234 5.21029 4.60808 4.51293L5.6014 3.50277C6.28714 2.80541 7.39895 2.80541 8.08469 3.50277L9.47702 4.91867L10.2199 4.16318L9.9113 3.84935C9.49984 3.43093 9.49984 2.75254 9.9113 2.33412L11.8979 0.313811ZM5.01565 9.95273L4.46266 9.3903C4.32551 9.25087 4.10315 9.25087 3.96599 9.3903L1.97937 11.4107C1.84222 11.5501 1.84222 11.7762 1.97937 11.9157L2.97268 12.9259C3.10983 13.0653 3.33219 13.0653 3.46934 12.9259L5.45597 10.9056C5.59312 10.7661 5.59312 10.5399 5.45597 10.4004L5.02353 9.96072C5.0222 9.95937 5.02088 9.95808 5.01956 9.95673C5.01825 9.95537 5.01695 9.95401 5.01565 9.95273ZM12.8912 0.818889C12.754 0.679418 12.5317 0.679418 12.3946 0.818889L10.408 2.8392C10.2708 2.97867 10.2708 3.2048 10.408 3.34427L11.4013 4.35442C11.5384 4.4939 11.7607 4.4939 11.8979 4.35442L13.8845 2.33412C14.0217 2.19465 14.0217 1.96852 13.8845 1.82904L12.8912 0.818889ZM5.10474 6.53323C4.6933 6.1148 4.6933 5.43642 5.10474 5.018L6.09806 4.00785C6.50951 3.58943 7.17658 3.58943 7.58803 4.00785L10.568 7.0383C10.9794 7.45673 10.9794 8.13508 10.568 8.55351L9.57465 9.56365C9.16319 9.98208 8.49614 9.98208 8.08469 9.56365L5.10474 6.53323Z" fill="#3F444D"/>
<path fill-rule="evenodd" clip-rule="evenodd" d="M12.3415 10.3625C12.2666 10.5466 12.1567 10.7138 12.0182 10.8547C11.8797 10.9954 11.7153 11.1072 11.5343 11.1834C11.3534 11.2597 11.1594 11.2989 10.9635 11.2989C10.7695 11.2989 10.6123 11.139 10.6123 10.9417C10.6123 10.7445 10.7695 10.5846 10.9635 10.5846C11.0671 10.5846 11.1698 10.5639 11.2655 10.5235C11.3613 10.4832 11.4482 10.4241 11.5216 10.3495C11.5948 10.275 11.653 10.1866 11.6926 10.0892C11.7323 9.9918 11.7527 9.88744 11.7527 9.78208C11.7527 9.5848 11.9099 9.42494 12.1039 9.42494C12.2978 9.42494 12.4551 9.5848 12.4551 9.78208C12.4551 9.98123 12.4165 10.1785 12.3415 10.3625Z" fill="#3F444D"/>
<path fill-rule="evenodd" clip-rule="evenodd" d="M13.7323 10.7111C13.5754 11.1477 13.3308 11.5401 13.0115 11.8647C12.6923 12.1894 12.3063 12.4382 11.8771 12.5977C11.448 12.7571 10.985 12.8237 10.5156 12.7962C10.3219 12.7848 10.174 12.6159 10.1852 12.419C10.1963 12.2221 10.3624 12.0717 10.556 12.083C10.9341 12.1052 11.3009 12.0513 11.6361 11.9267C11.9712 11.8023 12.2693 11.6094 12.5149 11.3597C12.7604 11.11 12.9501 10.8068 13.0725 10.466C13.1949 10.1251 13.248 9.75208 13.2262 9.36758C13.215 9.17065 13.3629 9.00187 13.5565 8.99044C13.7502 8.97908 13.9162 9.12951 13.9274 9.32644C13.9545 9.80394 13.889 10.2747 13.7323 10.7111Z" fill="#3F444D"/>
</svg>
