<svg width="94" height="17" viewBox="0 0 94 17" fill="none" xmlns="http://www.w3.org/2000/svg">
<path d="M3.50793 12.8459L1.53918 5.95532L0.507935 5.76782V4.39282H4.59387V5.76001L3.70325 5.93188L4.4845 9.22095L4.64075 9.86938H4.68762L4.89856 9.22095L6.63293 4.39282H8.16418L9.84387 9.28345L10.0626 9.97095H10.1095L10.3126 9.28345L11.2345 5.9397L10.2501 5.76001V4.39282H14.2501V5.76782L13.2657 5.95532L11.1173 12.8459H9.19543L7.64856 8.65845L7.37512 7.72876H7.32825L7.05481 8.66626L5.53137 12.8459H3.50793Z" fill="#1D2433"/>
<path d="M18.8829 13.01C18.0756 13.01 17.3699 12.8329 16.7657 12.4788C16.1616 12.1194 15.6928 11.6272 15.3595 11.0022C15.0314 10.3772 14.8673 9.66366 14.8673 8.86157V8.54907C14.8673 7.71053 15.0236 6.96834 15.3361 6.32251C15.6486 5.67147 16.0887 5.16105 16.6564 4.79126C17.2293 4.41626 17.9038 4.23136 18.6798 4.23657C19.4454 4.23657 20.0887 4.38761 20.6095 4.6897C21.1303 4.99178 21.5262 5.42668 21.797 5.99438C22.0678 6.56209 22.2032 7.24959 22.2032 8.05688V9.29907H17.2345L17.2189 9.34595C17.2501 9.71574 17.3413 10.0465 17.4923 10.3381C17.6486 10.6246 17.8673 10.8512 18.1486 11.0178C18.4298 11.1793 18.771 11.26 19.172 11.26C19.5887 11.26 19.9767 11.2079 20.3361 11.1038C20.7006 10.9944 21.0548 10.8355 21.3986 10.6272L22.0157 12.0334C21.6668 12.3147 21.2267 12.5491 20.6954 12.7366C20.1694 12.9189 19.5652 13.01 18.8829 13.01ZM17.2501 7.79126H20.0704V7.58813C20.0704 7.24438 20.0236 6.95011 19.9298 6.70532C19.8413 6.45532 19.6954 6.26261 19.4923 6.1272C19.2944 5.99178 19.0366 5.92407 18.7189 5.92407C18.4168 5.92407 18.1616 6.0048 17.9532 6.16626C17.7449 6.32251 17.5809 6.53866 17.4611 6.8147C17.3465 7.09074 17.2684 7.40324 17.2267 7.7522L17.2501 7.79126Z" fill="#1D2433"/>
<path d="M26.1017 13.01C25.2631 13.01 24.5965 12.7861 24.1017 12.3381C23.6069 11.885 23.3595 11.2704 23.3595 10.4944C23.3595 9.96313 23.5027 9.49699 23.7892 9.09595C24.0809 8.69491 24.5079 8.3798 25.0704 8.15063C25.6381 7.92147 26.3361 7.80688 27.1642 7.80688H28.2814V7.18188C28.2814 6.77563 28.1616 6.44751 27.922 6.19751C27.6876 5.9423 27.3335 5.8147 26.8595 5.8147C26.6147 5.8147 26.396 5.84595 26.2032 5.90845C26.0105 5.96574 25.8335 6.04907 25.672 6.15845L25.4923 7.27563H23.8517L23.8204 5.08032C24.2631 4.83032 24.7423 4.6272 25.2579 4.47095C25.7736 4.3147 26.3491 4.23657 26.9845 4.23657C28.0887 4.23657 28.9611 4.49438 29.6017 5.01001C30.2423 5.52043 30.5626 6.2522 30.5626 7.20532V10.6897C30.5626 10.8043 30.5626 10.9189 30.5626 11.0334C30.5678 11.1428 30.5782 11.2496 30.5939 11.3538L31.4767 11.4788V12.8459H28.6486C28.5913 12.7001 28.534 12.5439 28.4767 12.3772C28.4194 12.2105 28.3777 12.0439 28.3517 11.8772C28.0809 12.2209 27.7605 12.497 27.3907 12.7053C27.0262 12.9084 26.5965 13.01 26.1017 13.01ZM26.7111 11.3225C27.0288 11.3225 27.3309 11.2522 27.6173 11.1116C27.9038 10.9657 28.1251 10.7756 28.2814 10.5413V9.20532H27.1564C26.6564 9.20532 26.2762 9.31991 26.0157 9.54907C25.7605 9.77824 25.6329 10.0543 25.6329 10.3772C25.6329 10.6793 25.7267 10.9137 25.9142 11.0803C26.1069 11.2418 26.3725 11.3225 26.7111 11.3225Z" fill="#1D2433"/>
<path d="M35.3282 13.01C34.5418 13.01 33.935 12.7939 33.5079 12.3616C33.0861 11.9293 32.8751 11.2444 32.8751 10.3069V5.99438H31.7111V4.39282H32.8751V2.32251H35.1486V4.39282H36.7032V5.99438H35.1486V10.2991C35.1486 10.6272 35.2163 10.8616 35.3517 11.0022C35.4923 11.1428 35.6824 11.2131 35.922 11.2131C36.0522 11.2131 36.1876 11.2053 36.3282 11.1897C36.4741 11.1689 36.5991 11.148 36.7032 11.1272L36.8986 12.7756C36.6642 12.8433 36.409 12.898 36.1329 12.9397C35.8621 12.9866 35.5939 13.01 35.3282 13.01Z" fill="#1D2433"/>
<path d="M37.6329 12.8459V11.4788L38.7345 11.2444V2.26782L37.5157 2.03345V0.658447H41.0079V5.47095C41.2736 5.08032 41.6017 4.77824 41.9923 4.5647C42.3881 4.34595 42.8361 4.23657 43.3361 4.23657C44.185 4.23657 44.8569 4.52043 45.3517 5.08813C45.8517 5.65063 46.1017 6.52303 46.1017 7.70532V11.2444L47.1954 11.4788V12.8459H42.8361V11.4788L43.8204 11.2444V7.6897C43.8204 7.08032 43.7059 6.64803 43.4767 6.39282C43.2475 6.13761 42.9116 6.01001 42.4689 6.01001C42.1616 6.01001 41.8803 6.07511 41.6251 6.20532C41.3751 6.33032 41.1694 6.51522 41.0079 6.76001V11.2444L41.9923 11.4788V12.8459H37.6329Z" fill="#1D2433"/>
<path d="M51.8829 13.01C51.0756 13.01 50.3699 12.8329 49.7657 12.4788C49.1616 12.1194 48.6928 11.6272 48.3595 11.0022C48.0314 10.3772 47.8673 9.66366 47.8673 8.86157V8.54907C47.8673 7.71053 48.0236 6.96834 48.3361 6.32251C48.6486 5.67147 49.0887 5.16105 49.6564 4.79126C50.2293 4.41626 50.9038 4.23136 51.6798 4.23657C52.4454 4.23657 53.0887 4.38761 53.6095 4.6897C54.1303 4.99178 54.5262 5.42668 54.797 5.99438C55.0678 6.56209 55.2032 7.24959 55.2032 8.05688V9.29907H50.2345L50.2189 9.34595C50.2501 9.71574 50.3413 10.0465 50.4923 10.3381C50.6486 10.6246 50.8673 10.8512 51.1486 11.0178C51.4298 11.1793 51.771 11.26 52.172 11.26C52.5887 11.26 52.9767 11.2079 53.3361 11.1038C53.7006 10.9944 54.0548 10.8355 54.3986 10.6272L55.0157 12.0334C54.6668 12.3147 54.2267 12.5491 53.6954 12.7366C53.1694 12.9189 52.5652 13.01 51.8829 13.01ZM50.2501 7.79126H53.0704V7.58813C53.0704 7.24438 53.0236 6.95011 52.9298 6.70532C52.8413 6.45532 52.6954 6.26261 52.4923 6.1272C52.2944 5.99178 52.0366 5.92407 51.7189 5.92407C51.4168 5.92407 51.1616 6.0048 50.9532 6.16626C50.7449 6.32251 50.5809 6.53866 50.4611 6.8147C50.3465 7.09074 50.2684 7.40324 50.2267 7.7522L50.2501 7.79126Z" fill="#1D2433"/>
<path d="M56.4298 12.8459V11.4788L57.5236 11.2444V6.0022L56.3126 5.76782V4.39282H59.6486L59.7345 5.4397L59.7501 5.6272C59.9585 5.16886 60.2163 4.82251 60.5236 4.58813C60.8309 4.35376 61.198 4.23657 61.6251 4.23657C61.7605 4.23657 61.909 4.24959 62.0704 4.27563C62.2319 4.29647 62.3751 4.32511 62.5001 4.36157L62.2579 6.46313L61.1251 6.40063C60.8022 6.38501 60.5392 6.4397 60.3361 6.5647C60.1381 6.6897 59.9611 6.86938 59.8048 7.10376V11.2444L60.8986 11.4788V12.8459H56.4298Z" fill="#1D2433"/>
<path d="M66.7501 16.26C66.323 16.26 65.8439 16.2053 65.3126 16.0959C64.7814 15.9866 64.3126 15.8303 63.9064 15.6272L64.3282 14.0022C64.6928 14.1584 65.0782 14.2808 65.4845 14.3694C65.896 14.4631 66.2788 14.51 66.6329 14.51C67.2423 14.51 67.6876 14.3407 67.9689 14.0022C68.2553 13.6637 68.3986 13.1923 68.3986 12.5881V12.0334C68.1486 12.3512 67.8543 12.5933 67.5157 12.76C67.1772 12.9267 66.7892 13.01 66.3517 13.01C65.6642 13.01 65.073 12.8381 64.5782 12.4944C64.0835 12.1454 63.7059 11.6584 63.4454 11.0334C63.185 10.4084 63.0548 9.68188 63.0548 8.85376V8.6897C63.0548 7.79907 63.185 7.02043 63.4454 6.35376C63.7059 5.68709 64.0782 5.16886 64.5626 4.79907C65.047 4.42407 65.6277 4.23657 66.3048 4.23657C66.81 4.23657 67.2449 4.34334 67.6095 4.55688C67.9741 4.76522 68.284 5.0647 68.5392 5.45532L68.7032 4.39282H70.6876V12.5959C70.6876 13.3407 70.5288 13.9866 70.2111 14.5334C69.8986 15.0803 69.448 15.5048 68.8595 15.8069C68.271 16.109 67.5678 16.26 66.7501 16.26ZM66.9923 11.2366C67.3152 11.2366 67.5939 11.1741 67.8282 11.0491C68.0626 10.9189 68.2527 10.7314 68.3986 10.4866V6.8147C68.2527 6.55949 68.06 6.36157 67.8204 6.22095C67.5861 6.08032 67.3126 6.01001 67.0001 6.01001C66.6095 6.01001 66.2918 6.12459 66.047 6.35376C65.8022 6.57772 65.6225 6.89022 65.5079 7.29126C65.3934 7.68709 65.3361 8.15324 65.3361 8.6897V8.85376C65.3361 9.59334 65.4637 10.1767 65.7189 10.6038C65.9741 11.0256 66.3986 11.2366 66.9923 11.2366ZM70.3986 6.04126L69.4064 4.39282H71.6798V5.76782L70.3986 6.04126Z" fill="#1D2433"/>
<path d="M72.5548 12.8459V11.4788L73.6486 11.2444V6.0022L72.4376 5.76782V4.39282H75.7736L75.8595 5.4397L75.8751 5.6272C76.0835 5.16886 76.3413 4.82251 76.6486 4.58813C76.9559 4.35376 77.323 4.23657 77.7501 4.23657C77.8855 4.23657 78.034 4.24959 78.1954 4.27563C78.3569 4.29647 78.5001 4.32511 78.6251 4.36157L78.3829 6.46313L77.2501 6.40063C76.9272 6.38501 76.6642 6.4397 76.4611 6.5647C76.2631 6.6897 76.0861 6.86938 75.9298 7.10376V11.2444L77.0236 11.4788V12.8459H72.5548Z" fill="#1D2433"/>
<path d="M79.3439 12.8459V11.4788L80.4454 11.2444V6.0022L79.2267 5.76782V4.39282H82.7267V11.2444L83.8204 11.4788V12.8459H79.3439ZM80.3673 2.60376V0.658447H82.7267V2.60376H80.3673Z" fill="#1D2433"/>
<path d="M87.8361 13.01C87.1642 13.01 86.5861 12.8381 86.1017 12.4944C85.6225 12.1454 85.2553 11.6611 85.0001 11.0413C84.7449 10.4163 84.6173 9.68709 84.6173 8.85376V8.6897C84.6173 7.79907 84.7449 7.02043 85.0001 6.35376C85.2605 5.68709 85.6303 5.16886 86.1095 4.79907C86.5887 4.42407 87.1616 4.23657 87.8282 4.23657C88.2918 4.23657 88.698 4.33032 89.047 4.51782C89.396 4.70011 89.698 4.96053 89.9532 5.29907V2.26782L88.7345 2.03345V0.658447H92.2345V11.2444L93.3282 11.4788V12.8459H90.2579L90.0861 11.8147C89.8204 12.2053 89.5027 12.5022 89.1329 12.7053C88.7684 12.9084 88.3361 13.01 87.8361 13.01ZM88.5157 11.2366C88.8335 11.2366 89.1121 11.1689 89.3517 11.0334C89.5913 10.898 89.7918 10.7027 89.9532 10.4475V6.86157C89.797 6.59074 89.5991 6.38241 89.3595 6.23657C89.1199 6.08553 88.8439 6.01001 88.5314 6.01001C88.1512 6.01001 87.8387 6.12459 87.5939 6.35376C87.3543 6.57772 87.1772 6.89022 87.0626 7.29126C86.9532 7.6923 86.8986 8.15845 86.8986 8.6897V8.85376C86.8986 9.59334 87.0236 10.1767 87.2736 10.6038C87.5236 11.0256 87.9376 11.2366 88.5157 11.2366Z" fill="#1D2433"/>
</svg>
